<svg width="315" height="188" viewBox="0 0 315 188" fill="none" xmlns="http://www.w3.org/2000/svg">
<mask id="path-1-inside-1_1_2855" fill="white">
<path d="M40.6702 83.826C32.2349 83.826 24.967 82.1313 18.8665 78.7421C12.7659 75.3529 8.09639 70.5328 4.85784 64.2816C1.61929 58.0305 0 50.6119 0 42.026C0 33.44 1.61929 26.0214 4.85784 19.7703C8.09639 13.4438 12.7659 8.58594 18.8665 5.19676C24.967 1.73225 32.2349 0 40.6702 0C49.1808 0 56.4487 1.73225 62.474 5.19676C68.5745 8.58594 73.244 13.4438 76.4826 19.7703C79.7211 26.0214 81.3404 33.44 81.3404 42.026C81.3404 50.6119 79.7211 58.0305 76.4826 64.2816C73.244 70.5328 68.5745 75.3529 62.474 78.7421C56.4487 82.1313 49.1808 83.826 40.6702 83.826ZM40.6702 66.0892C44.436 66.0892 47.6369 65.1477 50.2729 63.2649C52.9842 61.382 55.0554 58.6706 56.4864 55.1308C57.9174 51.5157 58.6329 47.1474 58.6329 42.026C58.6329 36.9045 57.9174 32.5362 56.4864 28.9211C55.0554 25.3059 52.9842 22.5569 50.2729 20.674C47.6369 18.7159 44.436 17.7368 40.6702 17.7368C36.9045 17.7368 33.6659 18.7159 30.9545 20.674C28.3185 22.5569 26.285 25.3059 24.854 28.9211C23.423 32.5362 22.7075 36.9045 22.7075 42.026C22.7075 47.1474 23.423 51.5157 24.854 55.1308C26.285 58.6706 28.3185 61.382 30.9545 63.2649C33.6659 65.1477 36.9045 66.0892 40.6702 66.0892Z"/>
<path d="M84.5194 82.0184V1.80756H106.888L133.663 46.9967V1.80756H155.805V82.0184H133.437L106.662 39.0886V82.0184H84.5194Z"/>
<path d="M160.675 82.0184V1.80756H220.098V19.5443H182.817V32.9881H218.743V50.6119H182.817V64.2816H221.002V82.0184H160.675Z"/>
<path d="M224.869 37.62L231.421 19.5443H222.948V1.80756H245.091V17.5108L236.505 37.62H224.869Z"/>
<path d="M282.012 83.826C274.631 83.826 268.343 82.6585 263.146 80.3238C257.949 77.989 253.92 74.6751 251.058 70.3821C248.196 66.0892 246.576 61.0054 246.2 55.1308L268.23 54.114C268.606 56.7501 269.359 59.0095 270.489 60.8924C271.619 62.7 273.125 64.0933 275.008 65.0724C276.966 65.9762 279.376 66.4281 282.238 66.4281C284.498 66.4281 286.418 66.2021 288 65.7502C289.581 65.223 290.786 64.4322 291.615 63.3778C292.443 62.3234 292.857 61.0054 292.857 59.4238C292.857 57.9928 292.481 56.7501 291.728 55.6957C291.05 54.5659 289.657 53.5868 287.548 52.7584C285.514 51.8546 282.464 50.9885 278.397 50.16C271.092 48.6537 265.179 46.9214 260.66 44.9632C256.142 42.9297 252.828 40.3313 250.719 37.1681C248.685 34.0049 247.669 29.9755 247.669 25.08C247.669 20.1092 248.949 15.7409 251.51 11.9751C254.07 8.20937 257.761 5.27207 262.581 3.16324C267.401 1.05441 273.2 0 279.979 0C287.134 0 293.121 1.20505 297.941 3.61513C302.761 6.02522 306.489 9.33909 309.125 13.5568C311.837 17.7744 313.456 22.6699 313.983 28.2432L292.179 29.147C292.029 26.6616 291.426 24.5528 290.372 22.8205C289.318 21.0883 287.887 19.7703 286.079 18.8665C284.347 17.8874 282.238 17.3978 279.753 17.3978C276.59 17.3978 274.142 18.038 272.41 19.3184C270.677 20.5987 269.811 22.2933 269.811 24.4021C269.811 26.0591 270.226 27.4524 271.054 28.5822C271.958 29.7119 273.389 30.6533 275.347 31.4065C277.38 32.1596 280.129 32.8375 283.594 33.44C291.502 34.7957 297.753 36.6409 302.347 38.9757C306.941 41.3104 310.18 44.0971 312.063 47.3357C314.021 50.5742 315 54.3023 315 58.52C315 63.7168 313.682 68.2357 311.046 72.0767C308.485 75.8425 304.719 78.7421 299.749 80.7757C294.853 82.8092 288.941 83.826 282.012 83.826Z"/>
<path d="M40.6703 187.712C32.235 187.712 24.9671 186.017 18.8666 182.628C12.766 179.239 8.09639 174.419 4.85784 168.168C1.61929 161.916 0 154.498 0 145.912C0 137.326 1.61929 129.907 4.85784 123.656C8.09639 117.33 12.766 112.472 18.8666 109.083C24.9671 105.618 32.235 103.886 40.6703 103.886C49.1809 103.886 56.4488 105.618 62.4741 109.083C68.5746 112.472 73.2442 117.33 76.4827 123.656C79.7213 129.907 81.3405 137.326 81.3405 145.912C81.3405 154.498 79.7213 161.916 76.4827 168.168C73.2442 174.419 68.5746 179.239 62.4741 182.628C56.4488 186.017 49.1809 187.712 40.6703 187.712ZM40.6703 169.975C44.4361 169.975 47.637 169.034 50.2731 167.151C52.9844 165.268 55.0555 162.557 56.4865 159.017C57.9175 155.402 58.6331 151.033 58.6331 145.912C58.6331 140.79 57.9175 136.422 56.4865 132.807C55.0555 129.192 52.9844 126.443 50.2731 124.56C47.637 122.602 44.4361 121.623 40.6703 121.623C36.9045 121.623 33.6662 122.602 30.9548 124.56C28.3188 126.443 26.2852 129.192 24.8542 132.807C23.4232 136.422 22.7075 140.79 22.7075 145.912C22.7075 151.033 23.4232 155.402 24.8542 159.017C26.2852 162.557 28.3188 165.268 30.9548 167.151C33.6662 169.034 36.9045 169.975 40.6703 169.975Z"/>
<path d="M98.0408 185.904L76.0111 105.694H98.8318L110.807 155.176L123.121 105.694H140.745L153.059 155.176L164.921 105.694H187.741L165.825 185.904H143.23L131.933 141.845L120.635 185.904H98.0408Z"/>
<path d="M190.8 185.904V105.694H213.168L239.943 150.883V105.694H262.087V185.904H239.717L212.942 142.975V185.904H190.8Z"/>
</mask>
<path d="M40.6702 83.826C32.2349 83.826 24.967 82.1313 18.8665 78.7421C12.7659 75.3529 8.09639 70.5328 4.85784 64.2816C1.61929 58.0305 0 50.6119 0 42.026C0 33.44 1.61929 26.0214 4.85784 19.7703C8.09639 13.4438 12.7659 8.58594 18.8665 5.19676C24.967 1.73225 32.2349 0 40.6702 0C49.1808 0 56.4487 1.73225 62.474 5.19676C68.5745 8.58594 73.244 13.4438 76.4826 19.7703C79.7211 26.0214 81.3404 33.44 81.3404 42.026C81.3404 50.6119 79.7211 58.0305 76.4826 64.2816C73.244 70.5328 68.5745 75.3529 62.474 78.7421C56.4487 82.1313 49.1808 83.826 40.6702 83.826ZM40.6702 66.0892C44.436 66.0892 47.6369 65.1477 50.2729 63.2649C52.9842 61.382 55.0554 58.6706 56.4864 55.1308C57.9174 51.5157 58.6329 47.1474 58.6329 42.026C58.6329 36.9045 57.9174 32.5362 56.4864 28.9211C55.0554 25.3059 52.9842 22.5569 50.2729 20.674C47.6369 18.7159 44.436 17.7368 40.6702 17.7368C36.9045 17.7368 33.6659 18.7159 30.9545 20.674C28.3185 22.5569 26.285 25.3059 24.854 28.9211C23.423 32.5362 22.7075 36.9045 22.7075 42.026C22.7075 47.1474 23.423 51.5157 24.854 55.1308C26.285 58.6706 28.3185 61.382 30.9545 63.2649C33.6659 65.1477 36.9045 66.0892 40.6702 66.0892Z" stroke="#777474" stroke-width="2" mask="url(#path-1-inside-1_1_2855)"/>
<path d="M84.5194 82.0184V1.80756H106.888L133.663 46.9967V1.80756H155.805V82.0184H133.437L106.662 39.0886V82.0184H84.5194Z" stroke="#777474" stroke-width="2" mask="url(#path-1-inside-1_1_2855)"/>
<path d="M160.675 82.0184V1.80756H220.098V19.5443H182.817V32.9881H218.743V50.6119H182.817V64.2816H221.002V82.0184H160.675Z" stroke="#777474" stroke-width="2" mask="url(#path-1-inside-1_1_2855)"/>
<path d="M224.869 37.62L231.421 19.5443H222.948V1.80756H245.091V17.5108L236.505 37.62H224.869Z" stroke="#777474" stroke-width="2" mask="url(#path-1-inside-1_1_2855)"/>
<path d="M282.012 83.826C274.631 83.826 268.343 82.6585 263.146 80.3238C257.949 77.989 253.92 74.6751 251.058 70.3821C248.196 66.0892 246.576 61.0054 246.2 55.1308L268.23 54.114C268.606 56.7501 269.359 59.0095 270.489 60.8924C271.619 62.7 273.125 64.0933 275.008 65.0724C276.966 65.9762 279.376 66.4281 282.238 66.4281C284.498 66.4281 286.418 66.2021 288 65.7502C289.581 65.223 290.786 64.4322 291.615 63.3778C292.443 62.3234 292.857 61.0054 292.857 59.4238C292.857 57.9928 292.481 56.7501 291.728 55.6957C291.05 54.5659 289.657 53.5868 287.548 52.7584C285.514 51.8546 282.464 50.9885 278.397 50.16C271.092 48.6537 265.179 46.9214 260.66 44.9632C256.142 42.9297 252.828 40.3313 250.719 37.1681C248.685 34.0049 247.669 29.9755 247.669 25.08C247.669 20.1092 248.949 15.7409 251.51 11.9751C254.07 8.20937 257.761 5.27207 262.581 3.16324C267.401 1.05441 273.2 0 279.979 0C287.134 0 293.121 1.20505 297.941 3.61513C302.761 6.02522 306.489 9.33909 309.125 13.5568C311.837 17.7744 313.456 22.6699 313.983 28.2432L292.179 29.147C292.029 26.6616 291.426 24.5528 290.372 22.8205C289.318 21.0883 287.887 19.7703 286.079 18.8665C284.347 17.8874 282.238 17.3978 279.753 17.3978C276.59 17.3978 274.142 18.038 272.41 19.3184C270.677 20.5987 269.811 22.2933 269.811 24.4021C269.811 26.0591 270.226 27.4524 271.054 28.5822C271.958 29.7119 273.389 30.6533 275.347 31.4065C277.38 32.1596 280.129 32.8375 283.594 33.44C291.502 34.7957 297.753 36.6409 302.347 38.9757C306.941 41.3104 310.18 44.0971 312.063 47.3357C314.021 50.5742 315 54.3023 315 58.52C315 63.7168 313.682 68.2357 311.046 72.0767C308.485 75.8425 304.719 78.7421 299.749 80.7757C294.853 82.8092 288.941 83.826 282.012 83.826Z" stroke="#777474" stroke-width="2" mask="url(#path-1-inside-1_1_2855)"/>
<path d="M40.6703 187.712C32.235 187.712 24.9671 186.017 18.8666 182.628C12.766 179.239 8.09639 174.419 4.85784 168.168C1.61929 161.916 0 154.498 0 145.912C0 137.326 1.61929 129.907 4.85784 123.656C8.09639 117.33 12.766 112.472 18.8666 109.083C24.9671 105.618 32.235 103.886 40.6703 103.886C49.1809 103.886 56.4488 105.618 62.4741 109.083C68.5746 112.472 73.2442 117.33 76.4827 123.656C79.7213 129.907 81.3405 137.326 81.3405 145.912C81.3405 154.498 79.7213 161.916 76.4827 168.168C73.2442 174.419 68.5746 179.239 62.4741 182.628C56.4488 186.017 49.1809 187.712 40.6703 187.712ZM40.6703 169.975C44.4361 169.975 47.637 169.034 50.2731 167.151C52.9844 165.268 55.0555 162.557 56.4865 159.017C57.9175 155.402 58.6331 151.033 58.6331 145.912C58.6331 140.79 57.9175 136.422 56.4865 132.807C55.0555 129.192 52.9844 126.443 50.2731 124.56C47.637 122.602 44.4361 121.623 40.6703 121.623C36.9045 121.623 33.6662 122.602 30.9548 124.56C28.3188 126.443 26.2852 129.192 24.8542 132.807C23.4232 136.422 22.7075 140.79 22.7075 145.912C22.7075 151.033 23.4232 155.402 24.8542 159.017C26.2852 162.557 28.3188 165.268 30.9548 167.151C33.6662 169.034 36.9045 169.975 40.6703 169.975Z" stroke="#777474" stroke-width="2" mask="url(#path-1-inside-1_1_2855)"/>
<path d="M98.0408 185.904L76.0111 105.694H98.8318L110.807 155.176L123.121 105.694H140.745L153.059 155.176L164.921 105.694H187.741L165.825 185.904H143.23L131.933 141.845L120.635 185.904H98.0408Z" stroke="#777474" stroke-width="2" mask="url(#path-1-inside-1_1_2855)"/>
<path d="M190.8 185.904V105.694H213.168L239.943 150.883V105.694H262.087V185.904H239.717L212.942 142.975V185.904H190.8Z" stroke="#777474" stroke-width="2" mask="url(#path-1-inside-1_1_2855)"/>
</svg>
