<svg width="612" height="87" viewBox="0 0 612 87" fill="none" xmlns="http://www.w3.org/2000/svg">
<mask id="path-1-inside-1_1_612" fill="white">
<path d="M42.162 86.9007C33.4173 86.9007 25.8828 85.1439 19.5585 81.6304C13.2342 78.1169 8.39336 73.1199 5.03602 66.6395C1.67867 60.159 0 52.4683 0 43.5675C0 34.6666 1.67867 26.9759 5.03602 20.4954C8.39336 13.9369 13.2342 8.90087 19.5585 5.38737C25.8828 1.79579 33.4173 0 42.162 0C50.9848 0 58.5193 1.79579 64.7655 5.38737C71.0898 8.90087 75.9306 13.9369 79.2879 20.4954C82.6453 26.9759 84.324 34.6666 84.324 43.5675C84.324 52.4683 82.6453 60.159 79.2879 66.6395C75.9306 73.1199 71.0898 78.1169 64.7655 81.6304C58.5193 85.1439 50.9848 86.9007 42.162 86.9007ZM42.162 68.5133C46.0659 68.5133 49.3842 67.5374 52.1169 65.5854C54.9277 63.6335 57.0748 60.8226 58.5583 57.153C60.0418 53.4052 60.7835 48.8768 60.7835 43.5675C60.7835 38.2582 60.0418 33.7296 58.5583 29.9819C57.0748 26.2342 54.9277 23.3843 52.1169 21.4324C49.3842 19.4023 46.0659 18.3873 42.162 18.3873C38.2581 18.3873 34.9008 19.4023 32.09 21.4324C29.3572 23.3843 27.2491 26.2342 25.7657 29.9819C24.2822 33.7296 23.5404 38.2582 23.5404 43.5675C23.5404 48.8768 24.2822 53.4052 25.7657 57.153C27.2491 60.8226 29.3572 63.6335 32.09 65.5854C34.9008 67.5374 38.2581 68.5133 42.162 68.5133Z"/>
<path d="M87.6196 85.0268V1.87387H110.809L138.565 48.7206V1.87387H161.52V85.0268H138.331L110.574 40.5224V85.0268H87.6196Z"/>
<path d="M166.568 85.0268V1.87387H228.171V20.2612H189.523V34.1981H226.766V52.4683H189.523V66.6395H229.108V85.0268H166.568Z"/>
<path d="M233.117 38.9999L239.91 20.2612H231.126V1.87387H254.081V18.1531L245.18 38.9999H233.117Z"/>
<path d="M292.357 86.9007C284.705 86.9007 278.185 85.6904 272.798 83.27C267.411 80.8496 263.234 77.4142 260.267 72.9637C257.3 68.5133 255.621 63.2431 255.231 57.153L278.068 56.0989C278.459 58.8317 279.239 61.174 280.411 63.1259C281.582 64.9998 283.143 66.4443 285.095 67.4593C287.125 68.3962 289.624 68.8647 292.591 68.8647C294.933 68.8647 296.924 68.6304 298.564 68.162C300.203 67.6154 301.452 66.7956 302.311 65.7025C303.17 64.6094 303.599 63.2431 303.599 61.6034C303.599 60.1199 303.209 58.8317 302.428 57.7386C301.725 56.5674 300.281 55.5524 298.095 54.6935C295.987 53.7566 292.825 52.8587 288.609 51.9998C281.035 50.4383 274.906 48.6425 270.221 46.6125C265.537 44.5044 262.101 41.8107 259.915 38.5314C257.807 35.2521 256.753 31.075 256.753 25.9999C256.753 20.8468 258.08 16.3183 260.735 12.4144C263.39 8.51049 267.215 5.46545 272.212 3.27927C277.209 1.09309 283.221 0 290.248 0C297.666 0 303.873 1.24925 308.87 3.74774C313.867 6.24622 317.731 9.68165 320.464 14.054C323.275 18.4264 324.954 23.5014 325.5 29.2792L302.897 30.2161C302.74 27.6396 302.116 25.4534 301.023 23.6576C299.93 21.8618 298.447 20.4954 296.573 19.5585C294.777 18.5435 292.591 18.036 290.014 18.036C286.735 18.036 284.197 18.6996 282.402 20.027C280.606 21.3543 279.708 23.111 279.708 25.2972C279.708 27.0149 280.137 28.4594 280.996 29.6305C281.933 30.8017 283.417 31.7777 285.447 32.5585C287.555 33.3392 290.405 34.0419 293.996 34.6666C302.194 36.072 308.674 37.9849 313.437 40.4053C318.2 42.8257 321.557 45.7146 323.509 49.0719C325.539 52.4293 326.554 56.2941 326.554 60.6665C326.554 66.0539 325.188 70.7385 322.455 74.7205C319.801 78.6244 315.897 81.6304 310.743 83.7385C305.668 85.8466 299.54 86.9007 292.357 86.9007Z"/>
<path d="M382.462 86.9007C373.717 86.9007 366.183 85.1439 359.859 81.6304C353.534 78.1169 348.693 73.1199 345.336 66.6395C341.979 60.159 340.3 52.4683 340.3 43.5675C340.3 34.6666 341.979 26.9759 345.336 20.4954C348.693 13.9369 353.534 8.90087 359.859 5.38737C366.183 1.79579 373.717 0 382.462 0C391.285 0 398.819 1.79579 405.066 5.38737C411.39 8.90087 416.231 13.9369 419.588 20.4954C422.946 26.9759 424.624 34.6666 424.624 43.5675C424.624 52.4683 422.946 60.159 419.588 66.6395C416.231 73.1199 411.39 78.1169 405.066 81.6304C398.819 85.1439 391.285 86.9007 382.462 86.9007ZM382.462 68.5133C386.366 68.5133 389.684 67.5374 392.417 65.5854C395.228 63.6335 397.375 60.8226 398.859 57.153C400.342 53.4052 401.084 48.8768 401.084 43.5675C401.084 38.2582 400.342 33.7296 398.859 29.9819C397.375 26.2342 395.228 23.3843 392.417 21.4324C389.684 19.4023 386.366 18.3873 382.462 18.3873C378.558 18.3873 375.201 19.4023 372.39 21.4324C369.658 23.3843 367.549 26.2342 366.066 29.9819C364.582 33.7296 363.841 38.2582 363.841 43.5675C363.841 48.8768 364.582 53.4052 366.066 57.153C367.549 60.8226 369.658 63.6335 372.39 65.5854C375.201 67.5374 378.558 68.5133 382.462 68.5133Z"/>
<path d="M441.937 85.0268L419.099 1.87387H442.757L455.171 53.171L467.937 1.87387H486.207L498.973 53.171L511.27 1.87387H534.928L512.207 85.0268H488.784L477.072 39.3512L465.36 85.0268H441.937Z"/>
<path d="M538.098 85.0268V1.87387H561.287L589.044 48.7206V1.87387H612V85.0268H588.81L561.053 40.5224V85.0268H538.098Z"/>
</mask>
<path d="M42.162 86.9007C33.4173 86.9007 25.8828 85.1439 19.5585 81.6304C13.2342 78.1169 8.39336 73.1199 5.03602 66.6395C1.67867 60.159 0 52.4683 0 43.5675C0 34.6666 1.67867 26.9759 5.03602 20.4954C8.39336 13.9369 13.2342 8.90087 19.5585 5.38737C25.8828 1.79579 33.4173 0 42.162 0C50.9848 0 58.5193 1.79579 64.7655 5.38737C71.0898 8.90087 75.9306 13.9369 79.2879 20.4954C82.6453 26.9759 84.324 34.6666 84.324 43.5675C84.324 52.4683 82.6453 60.159 79.2879 66.6395C75.9306 73.1199 71.0898 78.1169 64.7655 81.6304C58.5193 85.1439 50.9848 86.9007 42.162 86.9007ZM42.162 68.5133C46.0659 68.5133 49.3842 67.5374 52.1169 65.5854C54.9277 63.6335 57.0748 60.8226 58.5583 57.153C60.0418 53.4052 60.7835 48.8768 60.7835 43.5675C60.7835 38.2582 60.0418 33.7296 58.5583 29.9819C57.0748 26.2342 54.9277 23.3843 52.1169 21.4324C49.3842 19.4023 46.0659 18.3873 42.162 18.3873C38.2581 18.3873 34.9008 19.4023 32.09 21.4324C29.3572 23.3843 27.2491 26.2342 25.7657 29.9819C24.2822 33.7296 23.5404 38.2582 23.5404 43.5675C23.5404 48.8768 24.2822 53.4052 25.7657 57.153C27.2491 60.8226 29.3572 63.6335 32.09 65.5854C34.9008 67.5374 38.2581 68.5133 42.162 68.5133Z" stroke="#777474" stroke-width="2" mask="url(#path-1-inside-1_1_612)"/>
<path d="M87.6196 85.0268V1.87387H110.809L138.565 48.7206V1.87387H161.52V85.0268H138.331L110.574 40.5224V85.0268H87.6196Z" stroke="#777474" stroke-width="2" mask="url(#path-1-inside-1_1_612)"/>
<path d="M166.568 85.0268V1.87387H228.171V20.2612H189.523V34.1981H226.766V52.4683H189.523V66.6395H229.108V85.0268H166.568Z" stroke="#777474" stroke-width="2" mask="url(#path-1-inside-1_1_612)"/>
<path d="M233.117 38.9999L239.91 20.2612H231.126V1.87387H254.081V18.1531L245.18 38.9999H233.117Z" stroke="#777474" stroke-width="2" mask="url(#path-1-inside-1_1_612)"/>
<path d="M292.357 86.9007C284.705 86.9007 278.185 85.6904 272.798 83.27C267.411 80.8496 263.234 77.4142 260.267 72.9637C257.3 68.5133 255.621 63.2431 255.231 57.153L278.068 56.0989C278.459 58.8317 279.239 61.174 280.411 63.1259C281.582 64.9998 283.143 66.4443 285.095 67.4593C287.125 68.3962 289.624 68.8647 292.591 68.8647C294.933 68.8647 296.924 68.6304 298.564 68.162C300.203 67.6154 301.452 66.7956 302.311 65.7025C303.17 64.6094 303.599 63.2431 303.599 61.6034C303.599 60.1199 303.209 58.8317 302.428 57.7386C301.725 56.5674 300.281 55.5524 298.095 54.6935C295.987 53.7566 292.825 52.8587 288.609 51.9998C281.035 50.4383 274.906 48.6425 270.221 46.6125C265.537 44.5044 262.101 41.8107 259.915 38.5314C257.807 35.2521 256.753 31.075 256.753 25.9999C256.753 20.8468 258.08 16.3183 260.735 12.4144C263.39 8.51049 267.215 5.46545 272.212 3.27927C277.209 1.09309 283.221 0 290.248 0C297.666 0 303.873 1.24925 308.87 3.74774C313.867 6.24622 317.731 9.68165 320.464 14.054C323.275 18.4264 324.954 23.5014 325.5 29.2792L302.897 30.2161C302.74 27.6396 302.116 25.4534 301.023 23.6576C299.93 21.8618 298.447 20.4954 296.573 19.5585C294.777 18.5435 292.591 18.036 290.014 18.036C286.735 18.036 284.197 18.6996 282.402 20.027C280.606 21.3543 279.708 23.111 279.708 25.2972C279.708 27.0149 280.137 28.4594 280.996 29.6305C281.933 30.8017 283.417 31.7777 285.447 32.5585C287.555 33.3392 290.405 34.0419 293.996 34.6666C302.194 36.072 308.674 37.9849 313.437 40.4053C318.2 42.8257 321.557 45.7146 323.509 49.0719C325.539 52.4293 326.554 56.2941 326.554 60.6665C326.554 66.0539 325.188 70.7385 322.455 74.7205C319.801 78.6244 315.897 81.6304 310.743 83.7385C305.668 85.8466 299.54 86.9007 292.357 86.9007Z" stroke="#777474" stroke-width="2" mask="url(#path-1-inside-1_1_612)"/>
<path d="M382.462 86.9007C373.717 86.9007 366.183 85.1439 359.859 81.6304C353.534 78.1169 348.693 73.1199 345.336 66.6395C341.979 60.159 340.3 52.4683 340.3 43.5675C340.3 34.6666 341.979 26.9759 345.336 20.4954C348.693 13.9369 353.534 8.90087 359.859 5.38737C366.183 1.79579 373.717 0 382.462 0C391.285 0 398.819 1.79579 405.066 5.38737C411.39 8.90087 416.231 13.9369 419.588 20.4954C422.946 26.9759 424.624 34.6666 424.624 43.5675C424.624 52.4683 422.946 60.159 419.588 66.6395C416.231 73.1199 411.39 78.1169 405.066 81.6304C398.819 85.1439 391.285 86.9007 382.462 86.9007ZM382.462 68.5133C386.366 68.5133 389.684 67.5374 392.417 65.5854C395.228 63.6335 397.375 60.8226 398.859 57.153C400.342 53.4052 401.084 48.8768 401.084 43.5675C401.084 38.2582 400.342 33.7296 398.859 29.9819C397.375 26.2342 395.228 23.3843 392.417 21.4324C389.684 19.4023 386.366 18.3873 382.462 18.3873C378.558 18.3873 375.201 19.4023 372.39 21.4324C369.658 23.3843 367.549 26.2342 366.066 29.9819C364.582 33.7296 363.841 38.2582 363.841 43.5675C363.841 48.8768 364.582 53.4052 366.066 57.153C367.549 60.8226 369.658 63.6335 372.39 65.5854C375.201 67.5374 378.558 68.5133 382.462 68.5133Z" stroke="#777474" stroke-width="2" mask="url(#path-1-inside-1_1_612)"/>
<path d="M441.937 85.0268L419.099 1.87387H442.757L455.171 53.171L467.937 1.87387H486.207L498.973 53.171L511.27 1.87387H534.928L512.207 85.0268H488.784L477.072 39.3512L465.36 85.0268H441.937Z" stroke="#777474" stroke-width="2" mask="url(#path-1-inside-1_1_612)"/>
<path d="M538.098 85.0268V1.87387H561.287L589.044 48.7206V1.87387H612V85.0268H588.81L561.053 40.5224V85.0268H538.098Z" stroke="#777474" stroke-width="2" mask="url(#path-1-inside-1_1_612)"/>
</svg>
