<svg xmlns="http://www.w3.org/2000/svg" fill="none" height="100%" overflow="visible" preserveAspectRatio="none" style="display: block;" viewBox="0 0 1080 154" width="100%">
<g id="ones own">
<mask fill="white" id="path-1-inside-1_0_341">
<path d="M74.4035 153.354C58.9717 153.354 45.6755 150.254 34.515 144.054C23.3545 137.853 14.8118 129.035 8.88709 117.599C2.96237 106.163 0 92.5912 0 76.8837C0 61.1763 2.96237 47.6045 8.88709 36.1684C14.8118 24.5945 23.3545 15.7074 34.515 9.50713C45.6755 3.16904 58.9717 0 74.4035 0C89.9732 0 103.269 3.16904 114.292 9.50713C125.453 15.7074 133.995 24.5945 139.92 36.1684C145.845 47.6045 148.807 61.1763 148.807 76.8837C148.807 92.5912 145.845 106.163 139.92 117.599C133.995 129.035 125.453 137.853 114.292 144.054C103.269 150.254 89.9732 153.354 74.4035 153.354ZM74.4035 120.906C81.2927 120.906 87.1486 119.184 91.971 115.739C96.9312 112.294 100.72 107.334 103.338 100.858C105.956 94.2446 107.265 86.2531 107.265 76.8837C107.265 67.5144 105.956 59.5229 103.338 52.9092C100.72 46.2956 96.9312 41.2664 91.971 37.8218C87.1486 34.2394 81.2927 32.4482 74.4035 32.4482C67.5143 32.4482 61.5896 34.2394 56.6293 37.8218C51.8069 41.2664 48.0867 46.2956 45.4688 52.9092C42.8509 59.5229 41.542 67.5144 41.542 76.8837C41.542 86.2531 42.8509 94.2446 45.4688 100.858C48.0867 107.334 51.8069 112.294 56.6293 115.739C61.5896 119.184 67.5143 120.906 74.4035 120.906Z"/>
<path d="M154.623 150.047V3.30682H195.545L244.527 85.9775V3.30682H285.036V150.047H244.114L195.131 71.5101V150.047H154.623Z"/>
<path d="M293.944 150.047V3.30682H402.655V35.7551H334.452V60.3496H400.175V92.5912H334.452V117.599H404.309V150.047H293.944Z"/>
<path d="M411.383 68.8233L423.37 35.7551H407.87V3.30682H448.378V32.0349L432.671 68.8233H411.383Z"/>
<path d="M515.923 153.354C502.421 153.354 490.915 151.218 481.408 146.947C471.901 142.676 464.53 136.613 459.294 128.76C454.058 120.906 451.096 111.605 450.407 100.858L490.709 98.9981C491.398 103.821 492.775 107.954 494.842 111.399C496.909 114.706 499.665 117.255 503.109 119.046C506.692 120.699 511.101 121.526 516.337 121.526C520.47 121.526 523.983 121.113 526.877 120.286C529.77 119.321 531.975 117.875 533.49 115.946C535.006 114.017 535.764 111.605 535.764 108.712C535.764 106.094 535.075 103.821 533.697 101.892C532.457 99.8248 529.908 98.0336 526.05 96.518C522.33 94.8646 516.75 93.2801 509.31 91.7644C495.945 89.0087 485.128 85.8397 476.861 82.2573C468.594 78.5371 462.532 73.7836 458.674 67.9966C454.954 62.2097 453.094 54.8382 453.094 45.8822C453.094 36.7884 455.436 28.7969 460.121 21.9077C464.805 15.0185 471.557 9.64491 480.375 5.78695C489.193 1.92898 499.803 0 512.203 0C525.293 0 536.246 2.20455 545.064 6.61365C553.882 11.0227 560.702 17.0853 565.525 24.8012C570.485 32.5171 573.448 41.4731 574.412 51.6692L534.523 53.3226C534.248 48.7757 533.146 44.9177 531.217 41.7487C529.288 38.5796 526.67 36.1684 523.364 34.515C520.195 32.7238 516.337 31.8282 511.79 31.8282C506.003 31.8282 501.525 32.9994 498.356 35.3417C495.187 37.684 493.602 40.7842 493.602 44.6421C493.602 47.6734 494.36 50.2224 495.876 52.2892C497.529 54.356 500.147 56.0783 503.729 57.4561C507.45 58.834 512.479 60.074 518.817 61.1763C533.284 63.6564 544.72 67.0321 553.125 71.3034C561.529 75.5748 567.454 80.6728 570.899 86.5975C574.481 92.5223 576.272 99.3426 576.272 107.059C576.272 116.566 573.861 124.833 569.039 131.86C564.354 138.749 557.465 144.054 548.371 147.774C539.415 151.494 528.6 153.354 515.923 153.354Z"/>
<path d="M674.933 153.354C659.501 153.354 646.205 150.254 635.045 144.054C623.884 137.853 615.341 129.035 609.417 117.599C603.492 106.163 600.53 92.5912 600.53 76.8837C600.53 61.1763 603.492 47.6045 609.417 36.1684C615.341 24.5945 623.884 15.7074 635.045 9.50713C646.205 3.16904 659.501 0 674.933 0C690.503 0 703.799 3.16904 714.822 9.50713C725.982 15.7074 734.525 24.5945 740.45 36.1684C746.375 47.6045 749.337 61.1763 749.337 76.8837C749.337 92.5912 746.375 106.163 740.45 117.599C734.525 129.035 725.982 137.853 714.822 144.054C703.799 150.254 690.503 153.354 674.933 153.354ZM674.933 120.906C681.823 120.906 687.678 119.184 692.501 115.739C697.461 112.294 701.25 107.334 703.868 100.858C706.486 94.2446 707.795 86.2531 707.795 76.8837C707.795 67.5144 706.486 59.5229 703.868 52.9092C701.25 46.2956 697.461 41.2664 692.501 37.8218C687.678 34.2394 681.823 32.4482 674.933 32.4482C668.044 32.4482 662.12 34.2394 657.16 37.8218C652.337 41.2664 648.617 46.2956 645.999 52.9092C643.381 59.5229 642.072 67.5144 642.072 76.8837C642.072 86.2531 643.381 94.2446 645.999 100.858C648.617 107.334 652.337 112.294 657.16 115.739C662.12 119.184 668.044 120.906 674.933 120.906Z"/>
<path d="M779.889 150.047L739.587 3.30682H781.336L803.243 93.8312L825.771 3.30682H858.013L880.54 93.8312L902.241 3.30682H943.99L903.895 150.047H862.559L841.892 69.4434L821.224 150.047H779.889Z"/>
<path d="M949.585 150.047V3.30682H990.507L1039.49 85.9775V3.30682H1080V150.047H1039.08L990.094 71.5101V150.047H949.585Z"/>
</mask>
<path d="M74.4035 153.354C58.9717 153.354 45.6755 150.254 34.515 144.054C23.3545 137.853 14.8118 129.035 8.88709 117.599C2.96237 106.163 0 92.5912 0 76.8837C0 61.1763 2.96237 47.6045 8.88709 36.1684C14.8118 24.5945 23.3545 15.7074 34.515 9.50713C45.6755 3.16904 58.9717 0 74.4035 0C89.9732 0 103.269 3.16904 114.292 9.50713C125.453 15.7074 133.995 24.5945 139.92 36.1684C145.845 47.6045 148.807 61.1763 148.807 76.8837C148.807 92.5912 145.845 106.163 139.92 117.599C133.995 129.035 125.453 137.853 114.292 144.054C103.269 150.254 89.9732 153.354 74.4035 153.354ZM74.4035 120.906C81.2927 120.906 87.1486 119.184 91.971 115.739C96.9312 112.294 100.72 107.334 103.338 100.858C105.956 94.2446 107.265 86.2531 107.265 76.8837C107.265 67.5144 105.956 59.5229 103.338 52.9092C100.72 46.2956 96.9312 41.2664 91.971 37.8218C87.1486 34.2394 81.2927 32.4482 74.4035 32.4482C67.5143 32.4482 61.5896 34.2394 56.6293 37.8218C51.8069 41.2664 48.0867 46.2956 45.4688 52.9092C42.8509 59.5229 41.542 67.5144 41.542 76.8837C41.542 86.2531 42.8509 94.2446 45.4688 100.858C48.0867 107.334 51.8069 112.294 56.6293 115.739C61.5896 119.184 67.5143 120.906 74.4035 120.906Z" mask="url(#path-1-inside-1_0_341)" stroke="var(--stroke-0, #777474)" stroke-width="2"/>
<path d="M154.623 150.047V3.30682H195.545L244.527 85.9775V3.30682H285.036V150.047H244.114L195.131 71.5101V150.047H154.623Z" mask="url(#path-1-inside-1_0_341)" stroke="var(--stroke-0, #777474)" stroke-width="2"/>
<path d="M293.944 150.047V3.30682H402.655V35.7551H334.452V60.3496H400.175V92.5912H334.452V117.599H404.309V150.047H293.944Z" mask="url(#path-1-inside-1_0_341)" stroke="var(--stroke-0, #777474)" stroke-width="2"/>
<path d="M411.383 68.8233L423.37 35.7551H407.87V3.30682H448.378V32.0349L432.671 68.8233H411.383Z" mask="url(#path-1-inside-1_0_341)" stroke="var(--stroke-0, #777474)" stroke-width="2"/>
<path d="M515.923 153.354C502.421 153.354 490.915 151.218 481.408 146.947C471.901 142.676 464.53 136.613 459.294 128.76C454.058 120.906 451.096 111.605 450.407 100.858L490.709 98.9981C491.398 103.821 492.775 107.954 494.842 111.399C496.909 114.706 499.665 117.255 503.109 119.046C506.692 120.699 511.101 121.526 516.337 121.526C520.47 121.526 523.983 121.113 526.877 120.286C529.77 119.321 531.975 117.875 533.49 115.946C535.006 114.017 535.764 111.605 535.764 108.712C535.764 106.094 535.075 103.821 533.697 101.892C532.457 99.8248 529.908 98.0336 526.05 96.518C522.33 94.8646 516.75 93.2801 509.31 91.7644C495.945 89.0087 485.128 85.8397 476.861 82.2573C468.594 78.5371 462.532 73.7836 458.674 67.9966C454.954 62.2097 453.094 54.8382 453.094 45.8822C453.094 36.7884 455.436 28.7969 460.121 21.9077C464.805 15.0185 471.557 9.64491 480.375 5.78695C489.193 1.92898 499.803 0 512.203 0C525.293 0 536.246 2.20455 545.064 6.61365C553.882 11.0227 560.702 17.0853 565.525 24.8012C570.485 32.5171 573.448 41.4731 574.412 51.6692L534.523 53.3226C534.248 48.7757 533.146 44.9177 531.217 41.7487C529.288 38.5796 526.67 36.1684 523.364 34.515C520.195 32.7238 516.337 31.8282 511.79 31.8282C506.003 31.8282 501.525 32.9994 498.356 35.3417C495.187 37.684 493.602 40.7842 493.602 44.6421C493.602 47.6734 494.36 50.2224 495.876 52.2892C497.529 54.356 500.147 56.0783 503.729 57.4561C507.45 58.834 512.479 60.074 518.817 61.1763C533.284 63.6564 544.72 67.0321 553.125 71.3034C561.529 75.5748 567.454 80.6728 570.899 86.5975C574.481 92.5223 576.272 99.3426 576.272 107.059C576.272 116.566 573.861 124.833 569.039 131.86C564.354 138.749 557.465 144.054 548.371 147.774C539.415 151.494 528.6 153.354 515.923 153.354Z" mask="url(#path-1-inside-1_0_341)" stroke="var(--stroke-0, #777474)" stroke-width="2"/>
<path d="M674.933 153.354C659.501 153.354 646.205 150.254 635.045 144.054C623.884 137.853 615.341 129.035 609.417 117.599C603.492 106.163 600.53 92.5912 600.53 76.8837C600.53 61.1763 603.492 47.6045 609.417 36.1684C615.341 24.5945 623.884 15.7074 635.045 9.50713C646.205 3.16904 659.501 0 674.933 0C690.503 0 703.799 3.16904 714.822 9.50713C725.982 15.7074 734.525 24.5945 740.45 36.1684C746.375 47.6045 749.337 61.1763 749.337 76.8837C749.337 92.5912 746.375 106.163 740.45 117.599C734.525 129.035 725.982 137.853 714.822 144.054C703.799 150.254 690.503 153.354 674.933 153.354ZM674.933 120.906C681.823 120.906 687.678 119.184 692.501 115.739C697.461 112.294 701.25 107.334 703.868 100.858C706.486 94.2446 707.795 86.2531 707.795 76.8837C707.795 67.5144 706.486 59.5229 703.868 52.9092C701.25 46.2956 697.461 41.2664 692.501 37.8218C687.678 34.2394 681.823 32.4482 674.933 32.4482C668.044 32.4482 662.12 34.2394 657.16 37.8218C652.337 41.2664 648.617 46.2956 645.999 52.9092C643.381 59.5229 642.072 67.5144 642.072 76.8837C642.072 86.2531 643.381 94.2446 645.999 100.858C648.617 107.334 652.337 112.294 657.16 115.739C662.12 119.184 668.044 120.906 674.933 120.906Z" mask="url(#path-1-inside-1_0_341)" stroke="var(--stroke-0, #777474)" stroke-width="2"/>
<path d="M779.889 150.047L739.587 3.30682H781.336L803.243 93.8312L825.771 3.30682H858.013L880.54 93.8312L902.241 3.30682H943.99L903.895 150.047H862.559L841.892 69.4434L821.224 150.047H779.889Z" mask="url(#path-1-inside-1_0_341)" stroke="var(--stroke-0, #777474)" stroke-width="2"/>
<path d="M949.585 150.047V3.30682H990.507L1039.49 85.9775V3.30682H1080V150.047H1039.08L990.094 71.5101V150.047H949.585Z" mask="url(#path-1-inside-1_0_341)" stroke="var(--stroke-0, #777474)" stroke-width="2"/>
</g>
</svg>