<svg xmlns="http://www.w3.org/2000/svg" fill="none" height="100%" overflow="visible" preserveAspectRatio="none" style="display: block;" viewBox="0 0 103 31" width="100%">
<g id="Record logo">
<path d="M50.2055 0L52.5739 8.27725H54.2795L55.8517 2.86551H55.9164L57.4926 8.27725H59.1981L61.5665 0H59.6549L58.2847 5.76336H58.212L56.7045 0H55.0676L53.556 5.75123H53.4873L52.1172 0H50.2055Z" fill="var(--fill-0, #2C3831)"/>
<path d="M63.9118 8.27725V0H62.1618V8.27725H63.9118Z" fill="var(--fill-0, #2C3831)"/>
<path d="M65.0102 0V8.27725H70.3087V6.83439H66.7602V0H65.0102Z" fill="var(--fill-0, #2C3831)"/>
<path clip-rule="evenodd" d="M71.1262 8.27725H74.0604C74.9011 8.27725 75.6232 8.11154 76.2268 7.78013C76.833 7.44871 77.2978 6.97315 77.6211 6.35343C77.9471 5.73372 78.1102 4.99275 78.1102 4.13054C78.1102 3.27102 77.9471 2.53275 77.6211 1.91573C77.2978 1.29871 76.8357 0.825838 76.2348 0.49712C75.634 0.165707 74.9173 0 74.0847 0H71.1262V8.27725ZM73.9877 6.7778H72.8763V1.49944H73.9917C74.5091 1.49944 74.9442 1.59105 75.2972 1.77427C75.6502 1.95749 75.9156 2.2431 76.0934 2.6311C76.2739 3.01909 76.3642 3.51891 76.3642 4.13054C76.3642 4.74756 76.2739 5.25142 76.0934 5.64211C75.9156 6.0301 75.6488 6.31706 75.2931 6.50297C74.9402 6.68619 74.505 6.7778 73.9877 6.7778Z" fill="var(--fill-0, #2C3831)" fill-rule="evenodd"/>
<path d="M50.2055 11L52.5739 19.2772H54.2795L55.8517 13.8655H55.9164L57.4926 19.2772H59.1981L61.5665 11H59.6549L58.2847 16.7634H58.212L56.7045 11H55.0676L53.556 16.7512H53.4873L52.1172 11H50.2055Z" fill="var(--fill-0, #2C3831)"/>
<path clip-rule="evenodd" d="M68.788 17.4423C69.1302 16.8092 69.3013 16.0413 69.3013 15.1386C69.3013 14.236 69.1302 13.4681 68.788 12.8349C68.4485 12.2017 67.9851 11.7194 67.3977 11.388C66.813 11.0539 66.1555 10.8868 65.4254 10.8868C64.6898 10.8868 64.0297 11.0539 63.445 11.388C62.8603 11.7194 62.3982 12.2017 62.0587 12.8349C61.7192 13.4681 61.5494 14.236 61.5494 15.1386C61.5494 16.0386 61.7192 16.8051 62.0587 17.4383C62.3982 18.0715 62.8603 18.5551 63.445 18.8892C64.0297 19.2234 64.6898 19.3904 65.4254 19.3904C66.1555 19.3904 66.813 19.2247 67.3977 18.8933C67.9851 18.5592 68.4485 18.0755 68.788 17.4423ZM67.2643 13.6594C67.4394 14.0609 67.527 14.5539 67.527 15.1386C67.527 15.7233 67.4394 16.2164 67.2643 16.6179C67.0919 17.0193 66.848 17.3238 66.5328 17.5313C66.2175 17.7387 65.8484 17.8425 65.4254 17.8425C65.0023 17.8425 64.6332 17.7387 64.318 17.5313C64.0027 17.3238 63.7575 17.0193 63.5824 16.6179C63.4099 16.2164 63.3237 15.7233 63.3237 15.1386C63.3237 14.5539 63.4099 14.0609 63.5824 13.6594C63.7575 13.2579 64.0027 12.9535 64.318 12.746C64.6332 12.5385 65.0023 12.4348 65.4254 12.4348C65.8484 12.4348 66.2175 12.5385 66.5328 12.746C66.848 12.9535 67.0919 13.2579 67.2643 13.6594Z" fill="var(--fill-0, #2C3831)" fill-rule="evenodd"/>
<path clip-rule="evenodd" d="M70.2562 11V19.2772H72.0062V16.343H73.2837L74.8515 19.2772H76.7834L75.0272 16.0616C75.0525 16.0506 75.0774 16.0394 75.1021 16.0278C75.5521 15.8176 75.8956 15.5158 76.1327 15.1225C76.3698 14.7264 76.4884 14.2535 76.4884 13.7038C76.4884 13.1569 76.3712 12.6813 76.1368 12.2772C75.905 11.8703 75.5669 11.5564 75.1223 11.3355C74.6804 11.1118 74.1469 11 73.5218 11H70.2562ZM72.0062 14.9365H73.1945C73.5286 14.9365 73.8061 14.8907 74.027 14.7991C74.248 14.7075 74.4123 14.5701 74.5201 14.3869C74.6306 14.2037 74.6858 13.976 74.6858 13.7038C74.6858 13.429 74.6306 13.1973 74.5201 13.0087C74.4123 12.8201 74.2466 12.6773 74.023 12.5803C73.802 12.4806 73.5232 12.4307 73.1864 12.4307H72.0062V14.9365Z" fill="var(--fill-0, #2C3831)" fill-rule="evenodd"/>
<path d="M77.3837 11V19.2772H82.6822V17.8344H79.1337V11H77.3837Z" fill="var(--fill-0, #2C3831)"/>
<path clip-rule="evenodd" d="M83.4997 19.2772H86.434C87.2746 19.2772 87.9967 19.1115 88.6003 18.7801C89.2065 18.4487 89.6713 17.9731 89.9946 17.3534C90.3207 16.7337 90.4837 15.9928 90.4837 15.1305C90.4837 14.271 90.3207 13.5328 89.9946 12.9157C89.6713 12.2987 89.2092 11.8258 88.6084 11.4971C88.0075 11.1657 87.2908 11 86.4582 11H83.4997V19.2772ZM86.3612 17.7778H85.2498V12.4994H86.3653C86.8826 12.4994 87.3177 12.5911 87.6707 12.7743C88.0237 12.9575 88.2891 13.2431 88.4669 13.6311C88.6474 14.0191 88.7377 14.5189 88.7377 15.1305C88.7377 15.7476 88.6474 16.2514 88.4669 16.6421C88.2891 17.0301 88.0223 17.3171 87.6667 17.503C87.3137 17.6862 86.8785 17.7778 86.3612 17.7778Z" fill="var(--fill-0, #2C3831)" fill-rule="evenodd"/>
<path clip-rule="evenodd" d="M50.7107 22V30.2772H52.4608V27.343H53.7382L55.3061 30.2772H57.238L55.4818 27.0616C55.507 27.0506 55.532 27.0394 55.5566 27.0278C56.0066 26.8176 56.3502 26.5158 56.5873 26.1225C56.8244 25.7264 56.9429 25.2535 56.9429 24.7038C56.9429 24.1569 56.8257 23.6813 56.5913 23.2772C56.3596 22.8703 56.0214 22.5564 55.5769 22.3355C55.135 22.1118 54.6015 22 53.9764 22H50.7107ZM52.4608 25.9365H53.649C53.9831 25.9365 54.2606 25.8907 54.4816 25.7991C54.7025 25.7075 54.8669 25.5701 54.9747 25.3869C55.0851 25.2037 55.1404 24.976 55.1404 24.7038C55.1404 24.429 55.0851 24.1973 54.9747 24.0087C54.8669 23.8201 54.7012 23.6773 54.4775 23.5803C54.2566 23.4806 53.9777 23.4307 53.6409 23.4307H52.4608V25.9365Z" fill="var(--fill-0, #2C3831)" fill-rule="evenodd"/>
<path d="M57.8382 22V30.2772H63.4318V28.8344H59.5882V26.858H63.1287V25.4152H59.5882V23.4429H63.4157V22H57.8382Z" fill="var(--fill-0, #2C3831)"/>
<path d="M69.9985 24.8978H71.7688C71.7122 24.4182 71.5829 23.9925 71.3808 23.6207C71.1814 23.2489 70.9227 22.935 70.6048 22.679C70.2868 22.4203 69.9217 22.2236 69.5095 22.0889C69.1 21.9542 68.6554 21.8868 68.1758 21.8868C67.4483 21.8868 66.7935 22.0539 66.2115 22.388C65.6295 22.7194 65.1688 23.2017 64.8293 23.8349C64.4898 24.4681 64.3201 25.236 64.3201 26.1386C64.3201 27.0386 64.4871 27.8051 64.8212 28.4383C65.158 29.0715 65.6161 29.5551 66.1954 29.8892C66.7774 30.2234 67.4375 30.3904 68.1758 30.3904C68.7066 30.3904 69.1821 30.3109 69.6025 30.152C70.0255 29.9903 70.3892 29.772 70.6937 29.4972C71.0009 29.2197 71.2447 28.9058 71.4252 28.5555C71.6085 28.2025 71.723 27.8361 71.7688 27.4562L69.9985 27.4481C69.9581 27.6691 69.8854 27.8657 69.7803 28.0382C69.6779 28.2106 69.5486 28.3575 69.3923 28.4787C69.236 28.5973 69.0568 28.6875 68.8548 28.7495C68.6554 28.8115 68.4385 28.8425 68.2041 28.8425C67.7864 28.8425 67.4186 28.7401 67.1007 28.5353C66.7828 28.3305 66.5349 28.0274 66.357 27.6259C66.1819 27.2245 66.0943 26.7287 66.0943 26.1386C66.0943 25.5647 66.1819 25.077 66.357 24.6756C66.5322 24.2714 66.7787 23.9642 67.0967 23.7541C67.4146 23.5412 67.7878 23.4348 68.2162 23.4348C68.4533 23.4348 68.6729 23.4685 68.875 23.5358C69.0797 23.6032 69.2603 23.7002 69.4165 23.8268C69.5728 23.9535 69.7008 24.107 69.8005 24.2876C69.9002 24.4654 69.9662 24.6688 69.9985 24.8978Z" fill="var(--fill-0, #2C3831)"/>
<path clip-rule="evenodd" d="M79.7753 28.4423C80.1175 27.8092 80.2886 27.0413 80.2886 26.1386C80.2886 25.236 80.1175 24.4681 79.7753 23.8349C79.4358 23.2017 78.9724 22.7194 78.385 22.388C77.8003 22.0539 77.1429 21.8868 76.4127 21.8868C75.6771 21.8868 75.017 22.0539 74.4323 22.388C73.8476 22.7194 73.3855 23.2017 73.046 23.8349C72.7065 24.4681 72.5368 25.236 72.5368 26.1386C72.5368 27.0386 72.7065 27.8051 73.046 28.4383C73.3855 29.0715 73.8476 29.5551 74.4323 29.8892C75.017 30.2234 75.6771 30.3904 76.4127 30.3904C77.1429 30.3904 77.8003 30.2247 78.385 29.8933C78.9724 29.5592 79.4358 29.0755 79.7753 28.4423ZM78.2516 24.6594C78.4268 25.0609 78.5143 25.5539 78.5143 26.1386C78.5143 26.7233 78.4268 27.2164 78.2516 27.6179C78.0792 28.0193 77.8353 28.3238 77.5201 28.5313C77.2048 28.7387 76.8357 28.8425 76.4127 28.8425C75.9897 28.8425 75.6205 28.7387 75.3053 28.5313C74.99 28.3238 74.7448 28.0193 74.5697 27.6179C74.3973 27.2164 74.311 26.7233 74.311 26.1386C74.311 25.5539 74.3973 25.0609 74.5697 24.6594C74.7448 24.2579 74.99 23.9535 75.3053 23.746C75.6205 23.5385 75.9897 23.4348 76.4127 23.4348C76.8357 23.4348 77.2048 23.5385 77.5201 23.746C77.8353 23.9535 78.0792 24.2579 78.2516 24.6594Z" fill="var(--fill-0, #2C3831)" fill-rule="evenodd"/>
<path clip-rule="evenodd" d="M84.5091 22H81.2435V30.2772H82.9935V27.343H84.271L85.8388 30.2772H87.7707L86.0145 27.0616C86.0398 27.0506 86.0647 27.0394 86.0894 27.0278C86.5394 26.8176 86.8829 26.5158 87.12 26.1225C87.3571 25.7264 87.4757 25.2535 87.4757 24.7038C87.4757 24.1569 87.3585 23.6813 87.1241 23.2772C86.8923 22.8703 86.5542 22.5564 86.1096 22.3355C85.6677 22.1118 85.1342 22 84.5091 22ZM82.9935 25.9365H84.1818C84.5159 25.9365 84.7934 25.8907 85.0143 25.7991C85.2353 25.7075 85.3996 25.5701 85.5074 25.3869C85.6179 25.2037 85.6731 24.976 85.6731 24.7038C85.6731 24.429 85.6179 24.1973 85.5074 24.0087C85.3996 23.8201 85.2339 23.6773 85.0103 23.5803C84.7894 23.4806 84.5105 23.4307 84.1737 23.4307H82.9935V25.9365Z" fill="var(--fill-0, #2C3831)" fill-rule="evenodd"/>
<path clip-rule="evenodd" d="M88.371 30.2772H91.3052C92.1459 30.2772 92.868 30.1115 93.4715 29.7801C94.0778 29.4487 94.5425 28.9731 94.8659 28.3534C95.1919 27.7337 95.3549 26.9928 95.3549 26.1305C95.3549 25.271 95.1919 24.5328 94.8659 23.9157C94.5425 23.2987 94.0805 22.8258 93.4796 22.4971C92.8787 22.1657 92.162 22 91.3295 22H88.371V30.2772ZM91.2325 28.7778H90.121V23.4994H91.2365C91.7538 23.4994 92.189 23.5911 92.5419 23.7743C92.8949 23.9575 93.1603 24.2431 93.3381 24.6311C93.5187 25.0191 93.6089 25.5189 93.6089 26.1305C93.6089 26.7476 93.5187 27.2514 93.3381 27.6421C93.1603 28.0301 92.8936 28.3171 92.5379 28.503C92.1849 28.6862 91.7498 28.7778 91.2325 28.7778Z" fill="var(--fill-0, #2C3831)" fill-rule="evenodd"/>
<path d="M100.384 23.6207C100.629 23.8012 100.768 24.0545 100.8 24.3805H102.477C102.469 23.8874 102.337 23.4536 102.081 23.0791C101.825 22.7046 101.467 22.4122 101.006 22.2021C100.548 21.9919 100.012 21.8868 99.3976 21.8868C98.7941 21.8868 98.2552 21.9919 97.781 22.2021C97.3068 22.4122 96.9336 22.7046 96.6615 23.0791C96.392 23.4536 96.2586 23.8915 96.2613 24.3926C96.2586 25.0043 96.4594 25.4906 96.8635 25.8517C97.2677 26.2127 97.8187 26.4781 98.5166 26.6479L99.4178 26.8742C99.7196 26.9469 99.9742 27.0278 100.182 27.1167C100.392 27.2056 100.551 27.3134 100.659 27.44C100.769 27.5667 100.824 27.7229 100.824 27.9089C100.824 28.1082 100.764 28.2847 100.642 28.4383C100.521 28.5919 100.35 28.7118 100.129 28.798C99.9109 28.8842 99.6536 28.9273 99.3572 28.9273C99.0554 28.9273 98.7847 28.8815 98.5449 28.7899C98.3077 28.6956 98.1178 28.5569 97.975 28.3736C97.8349 28.1877 97.7554 27.956 97.7365 27.6785H96.0431C96.0566 28.2739 96.2007 28.7738 96.4755 29.1779C96.7531 29.5794 97.1384 29.8825 97.6314 30.0873C98.1272 30.2921 98.7092 30.3945 99.3774 30.3945C100.051 30.3945 100.626 30.2934 101.103 30.0913C101.583 29.8866 101.949 29.5996 102.203 29.2305C102.458 28.8586 102.588 28.4194 102.591 27.9129C102.588 27.568 102.525 27.2622 102.401 26.9954C102.279 26.7287 102.108 26.497 101.887 26.3003C101.666 26.1036 101.405 25.9379 101.103 25.8032C100.801 25.6684 100.47 25.5607 100.109 25.4798L99.3653 25.302C99.1848 25.2616 99.015 25.2131 98.8561 25.1565C98.6971 25.0972 98.557 25.0285 98.4357 24.9504C98.3145 24.8696 98.2188 24.7739 98.1488 24.6634C98.0814 24.553 98.0504 24.4236 98.0558 24.2754C98.0558 24.0976 98.107 23.9386 98.2094 23.7985C98.3145 23.6584 98.4654 23.5493 98.6621 23.4712C98.8587 23.3903 99.0999 23.3499 99.3855 23.3499C99.8058 23.3499 100.139 23.4402 100.384 23.6207Z" fill="var(--fill-0, #2C3831)"/>
<path d="M17.0962 13.7277L17.7942 19.8642H21.3423L22.5784 9.85965H19.99L19.5537 17.1595H19.4228L18.5794 9.85965H15.5839L14.7696 17.1595H14.6387L14.1297 9.85965H11.5123L12.7337 19.8642H16.2819L16.9799 13.7277H17.0962Z" fill="var(--fill-0, #2C3831)"/>
<path clip-rule="evenodd" d="M26.0865 16.5778L26.8717 19.8642H29.5619L28.4568 16.1125C28.8058 15.8508 29.0384 15.4921 29.1548 15.0364C29.2711 14.5711 29.3293 13.9652 29.3293 13.2187C29.3293 12.3947 29.2614 11.75 29.1257 11.2847C28.9996 10.8097 28.7476 10.4558 28.3695 10.2232C27.9914 9.98083 27.434 9.85965 26.6972 9.85965H23.0182V19.8642H25.6357V16.5778H26.0865ZM26.0283 14.5129H25.6357V11.9973H26.0283C26.2513 11.9973 26.4064 12.0215 26.4937 12.07C26.5809 12.1087 26.6342 12.2105 26.6536 12.3753C26.6827 12.5304 26.6972 12.8213 26.6972 13.2478C26.6972 13.6744 26.6827 13.97 26.6536 14.1349C26.6245 14.2997 26.5664 14.4063 26.4791 14.4548C26.3919 14.4935 26.2416 14.5129 26.0283 14.5129Z" fill="var(--fill-0, #2C3831)" fill-rule="evenodd"/>
<path d="M30.1022 13.7256V10.7138H29.3493V9.77589H31.912V10.7138H31.1458V13.7256H30.1022Z" fill="var(--fill-0, #2C3831)"/>
<path clip-rule="evenodd" d="M28.8488 4.89088H28.9432L31.4373 0.0934647H42.7774L37.7726 30.0935H23.2985L21.4359 26.0013H21.3415L19.479 30.0935H5.00487L0 0.0934647H11.3401L13.8342 4.89088H13.9286L16.5172 0.0934647H26.2603L28.8488 4.89088ZM38.1459 14.8589C38.1459 19.9136 30.6437 24.0112 21.3894 24.0112C12.135 24.0112 4.63281 19.9136 4.63281 14.8589C4.63281 9.80422 12.135 5.70659 21.3894 5.70659C27.2003 5.70659 32.3204 7.3222 35.3262 9.77589H34.5935L34.2765 12.2197H34.2105L33.8802 9.77589H32.3082V13.7256H33.2726V10.978H33.3254L33.7613 13.7256H34.6728L35.0955 10.978H35.1483V13.7256H36.1391V10.5121C37.4192 11.8052 38.1459 13.2857 38.1459 14.8589Z" fill="var(--fill-0, #2C3831)" fill-rule="evenodd"/>
</g>
</svg>