<svg width="186" height="80" viewBox="0 0 186 80" fill="none" xmlns="http://www.w3.org/2000/svg">
<path d="M38.8145 0.5C46.8683 0.500066 53.7141 2.13882 59.373 5.39258V5.39355L59.3799 5.39648C65.1136 8.58189 69.5004 13.1445 72.5469 19.0957L72.5479 19.0977C75.5945 24.9784 77.1279 31.9762 77.1279 40.1074C77.1279 48.2388 75.5945 55.2373 72.5479 61.1182C69.502 66.9973 65.115 71.5247 59.3799 74.7109L59.377 74.7119C53.7172 77.8955 46.8701 79.4999 38.8145 79.5C30.8315 79.5 23.9818 77.8964 18.248 74.7109C12.5129 71.5247 8.12598 66.9973 5.08008 61.1182C2.03339 55.2373 0.5 48.2388 0.5 40.1074C0.500049 32.2303 1.939 25.417 4.79883 19.6523L5.08008 19.0977L5.08105 19.0957C8.12749 13.1445 12.5143 8.58189 18.248 5.39648L18.252 5.39453C23.9849 2.13878 30.8332 0.5 38.8145 0.5ZM146.942 0.5C154.997 0.5 161.843 2.13869 167.502 5.39258V5.39355L167.509 5.39648C173.242 8.58189 177.629 13.1446 180.676 19.0957L180.677 19.0977C183.723 24.9784 185.257 31.9762 185.257 40.1074C185.257 48.2388 183.723 55.2373 180.677 61.1182C177.631 66.9973 173.244 71.5247 167.509 74.7109L167.506 74.7129C161.846 77.8965 154.998 79.5 146.942 79.5C138.96 79.5 132.111 77.8963 126.377 74.7109C120.642 71.5247 116.255 66.9973 113.209 61.1182C110.162 55.2373 108.629 48.2388 108.629 40.1074C108.629 31.9762 110.162 24.9784 113.209 19.0977L113.21 19.0957C116.256 13.1446 120.643 8.58187 126.377 5.39648L126.381 5.39453C132.114 2.13881 138.961 0.500033 146.942 0.5ZM38.8145 16.4268C35.1303 16.4268 31.9339 17.3863 29.251 19.3232C26.6425 21.1865 24.6488 23.8955 23.2549 27.417C21.86 30.941 21.1709 35.1758 21.1709 40.1074C21.1709 45.0392 21.8599 49.2748 23.2549 52.7988L23.2559 52.8018C24.6507 56.2521 26.6451 58.9228 29.251 60.7842L29.2568 60.7881C31.9396 62.651 35.1336 63.5732 38.8145 63.5732C42.4923 63.5732 45.6502 62.6513 48.2627 60.7871L48.2637 60.7881C50.9431 58.9274 52.9758 56.2557 54.3721 52.8018L54.373 52.7988C55.768 49.2748 56.457 45.0392 56.457 40.1074C56.457 35.1758 55.7679 30.941 54.373 27.417C52.9777 23.8919 50.9447 21.1819 48.2627 19.3193C45.6512 17.3842 42.4927 16.4268 38.8145 16.4268ZM146.942 16.4268C143.258 16.4268 140.063 17.3864 137.38 19.3232C134.771 21.1865 132.778 23.8955 131.384 27.417C129.989 30.9409 129.3 35.1758 129.3 40.1074C129.3 45.0392 129.989 49.2748 131.384 52.7988L131.385 52.8018C132.78 56.2521 134.774 58.9228 137.38 60.7842L137.386 60.7881C140.068 62.651 143.262 63.5732 146.942 63.5732C150.62 63.5732 153.779 62.6515 156.392 60.7871L156.393 60.7881C159.072 58.9274 161.105 56.2557 162.501 52.8018L162.502 52.7988C163.897 49.2748 164.586 45.0392 164.586 40.1074C164.586 35.1758 163.897 30.941 162.502 27.417C161.107 23.8919 159.074 21.1819 156.392 19.3193C153.78 17.384 150.621 16.4268 146.942 16.4268ZM103.884 0.5V14.8838L95.8594 33.6777H85.7979L91.8086 17.0977L92.0508 16.4268H83.752V0.5H103.884Z" fill="#FFFBFB" stroke="#777474"/>
</svg>
